<svg width="64" height="64" viewBox="0 0 64 64" fill="none" xmlns="http://www.w3.org/2000/svg">
  <rect width="64" height="64" rx="16" fill="#7c3aed"/>
  <path d="M32 20C26.4772 20 22 24.4772 22 30C22 35.5228 26.4772 40 32 40C37.5228 40 42 35.5228 42 30C42 24.4772 37.5228 20 32 20ZM32 37C28.134 37 25 33.866 25 30C25 26.134 28.134 23 32 23C35.866 23 39 26.134 39 30C39 33.866 35.866 37 32 37Z" fill="#fff"/>
  <path d="M32 44C25.3726 44 20 46.6863 20 50V52H44V50C44 46.6863 38.6274 44 32 44Z" fill="#fff"/>
  <path d="M36 28C36 29.1046 35.1046 30 34 30C32.8954 30 32 29.1046 32 28C32 26.8954 32.8954 26 34 26C35.1046 26 36 26.8954 36 28Z" fill="#7c3aed"/>
</svg>
